<svg xmlns="http://www.w3.org/2000/svg" width="430" height="760" viewBox="0 0 430 760"><rect x="0" y="0" width="430" height="900" rx="0" fill="#F5F1E8" stroke="none" stroke-width="1"/><rect x="0" y="0" width="430" height="92" rx="0" fill="#1E2F4D" stroke="none" stroke-width="1"/><circle cx="32" cy="44" r="15" fill="none" stroke="#C9972B" stroke-width="2"/><path d="M32 34 L40 52 L24 52 Z" fill="#C9972B"/><text x="58" y="40" font-family="Georgia, 'Times New Roman', serif" font-size="19" fill="#FFFFFF" text-anchor="start" font-weight="bold">Orquestrador Visual</text><text x="58" y="63" font-family="Helvetica, Arial, sans-serif" font-size="12" fill="#B9C2D0" text-anchor="start" font-weight="normal">Resultado · escolha a melhor</text><text x="16" y="124" font-family="Helvetica, Arial, sans-serif" font-size="13" fill="#8A8270" text-anchor="start" font-weight="normal">‹  voltar</text><text x="16" y="150" font-family="Georgia, 'Times New Roman', serif" font-size="14.5" fill="#2A2A2A" text-anchor="start" font-weight="bold">Cap. 6 — João e Leônidas no plenário</text><rect x="16" y="166" width="191" height="250" rx="12" fill="#D8CDB3" stroke="#C9972B" stroke-width="3"/><path d="M56 360 L111 250 L166 360 Z" fill="#C2B696"/><rect x="90" y="300" width="42" height="60" fill="#A99B7C"/><circle cx="166" cy="240" r="18" fill="#E9C77A"/><text x="111" y="400" font-family="Helvetica, Arial, sans-serif" font-size="12" fill="#5C5340" text-anchor="middle" font-weight="normal">Variação 1</text><circle cx="186" cy="186" r="13" fill="#4F7942"/><path d="M180 186 l4 5 l8 -10" stroke="#FFF" stroke-width="3" fill="none" stroke-linecap="round" stroke-linejoin="round"/><rect x="223" y="166" width="191" height="250" rx="12" fill="#D8CDB3" stroke="#E3DCCB" stroke-width="1.2"/><path d="M263 360 L318 250 L373 360 Z" fill="#C2B696"/><rect x="297" y="300" width="42" height="60" fill="#A99B7C"/><circle cx="373" cy="240" r="18" fill="#E9C77A"/><text x="318" y="400" font-family="Helvetica, Arial, sans-serif" font-size="12" fill="#5C5340" text-anchor="middle" font-weight="normal">Variação 2</text><rect x="16" y="432" width="191" height="48" rx="12" fill="#C9972B" stroke="none" stroke-width="1"/><text x="111" y="462" font-family="Helvetica, Arial, sans-serif" font-size="15" fill="#FFF" text-anchor="middle" font-weight="bold">Aprovar</text><rect x="223" y="432" width="191" height="48" rx="12" fill="none" stroke="#1E2F4D" stroke-width="1.5"/><text x="318" y="462" font-family="Helvetica, Arial, sans-serif" font-size="15" fill="#1E2F4D" text-anchor="middle" font-weight="bold">Corrigir</text><rect x="16" y="496" width="398" height="44" rx="12" fill="#FFFFFF" stroke="#E3DCCB" stroke-width="1.2"/><text x="32" y="523" font-family="Helvetica, Arial, sans-serif" font-size="12.5" fill="#8A8270" text-anchor="start" font-weight="normal">Descreva a correção  (ex.: a gravata era bordô)</text><text x="18" y="572" font-family="Helvetica, Arial, sans-serif" font-size="11" fill="#8A8270" text-anchor="start" font-weight="bold">AJUSTES FINOS (sem re-gerar)</text><text x="18" y="599" font-family="Helvetica, Arial, sans-serif" font-size="12" fill="#2A2A2A" text-anchor="start" font-weight="normal">Brilho</text><rect x="150" y="592" width="200" height="6" rx="3" fill="#E3DCCB" stroke="none" stroke-width="1"/><rect x="150" y="592" width="90" height="6" rx="3" fill="#1E2F4D" stroke="none" stroke-width="1"/><circle cx="240" cy="595" r="8" fill="#1E2F4D"/><text x="18" y="629" font-family="Helvetica, Arial, sans-serif" font-size="12" fill="#2A2A2A" text-anchor="start" font-weight="normal">Saturação</text><rect x="150" y="622" width="200" height="6" rx="3" fill="#E3DCCB" stroke="none" stroke-width="1"/><rect x="150" y="622" width="120" height="6" rx="3" fill="#1E2F4D" stroke="none" stroke-width="1"/><circle cx="270" cy="625" r="8" fill="#1E2F4D"/><text x="18" y="659" font-family="Helvetica, Arial, sans-serif" font-size="12" fill="#2A2A2A" text-anchor="start" font-weight="normal">Temperatura</text><rect x="150" y="652" width="200" height="6" rx="3" fill="#E3DCCB" stroke="none" stroke-width="1"/><rect x="150" y="652" width="150" height="6" rx="3" fill="#1E2F4D" stroke="none" stroke-width="1"/><circle cx="300" cy="655" r="8" fill="#1E2F4D"/><rect x="16" y="690" width="150" height="40" rx="20" fill="none" stroke="#E3DCCB" stroke-width="1.2"/><text x="91" y="715" font-family="Helvetica, Arial, sans-serif" font-size="13" fill="#2A2A2A" text-anchor="middle" font-weight="normal">Gostei   ·   Não</text><rect x="294" y="690" width="120" height="40" rx="20" fill="#1E2F4D" stroke="none" stroke-width="1"/><text x="354" y="715" font-family="Helvetica, Arial, sans-serif" font-size="13" fill="#FFF" text-anchor="middle" font-weight="bold">Exportar 2×</text></svg>