<svg xmlns="http://www.w3.org/2000/svg" width="430" height="720" viewBox="0 0 430 720"><rect x="0" y="0" width="430" height="900" rx="0" fill="#F5F1E8" stroke="none" stroke-width="1"/><rect x="0" y="0" width="430" height="92" rx="0" fill="#1E2F4D" stroke="none" stroke-width="1"/><circle cx="32" cy="44" r="15" fill="none" stroke="#C9972B" stroke-width="2"/><path d="M32 34 L40 52 L24 52 Z" fill="#C9972B"/><text x="58" y="40" font-family="Georgia, 'Times New Roman', serif" font-size="19" fill="#FFFFFF" text-anchor="start" font-weight="bold">Orquestrador Visual</text><text x="58" y="63" font-family="Helvetica, Arial, sans-serif" font-size="12" fill="#B9C2D0" text-anchor="start" font-weight="normal">IALivro · estúdio de ilustração</text><rect x="16" y="112" width="197" height="40" rx="20" fill="#1E2F4D" stroke="none" stroke-width="1"/><text x="114" y="138" font-family="Helvetica, Arial, sans-serif" font-size="13" fill="#FFFFFF" text-anchor="middle" font-weight="bold">Trecho do capítulo</text><rect x="217" y="112" width="197" height="40" rx="20" fill="#FFFFFF" stroke="#E3DCCB" stroke-width="1.5"/><text x="315" y="138" font-family="Helvetica, Arial, sans-serif" font-size="13" fill="#8A8270" text-anchor="middle" font-weight="normal">Pedido dirigido</text><rect x="16" y="168" width="398" height="118" rx="14" fill="#FFFFFF" stroke="#E3DCCB" stroke-width="1.5"/><text x="32" y="198" font-family="Helvetica, Arial, sans-serif" font-size="13.5" fill="#8A8270" text-anchor="start" font-weight="normal">Cole o trecho do capítulo…</text><text x="32" y="220" font-family="Helvetica, Arial, sans-serif" font-size="12.5" fill="#B7AE99" text-anchor="start" font-weight="normal">“João sobe ao Templo e encontra o</text><text x="32" y="238" font-family="Helvetica, Arial, sans-serif" font-size="12.5" fill="#B7AE99" text-anchor="start" font-weight="normal">Leão guardião da Constituição…”</text><text x="18" y="312" font-family="Helvetica, Arial, sans-serif" font-size="11" fill="#8A8270" text-anchor="start" font-weight="bold">PERSONAGENS EM CENA</text><rect x="16" y="324" width="78" height="32" rx="16" fill="#EFE7D4" stroke="#E3DCCB" stroke-width="1"/><text x="32" y="345" font-family="Helvetica, Arial, sans-serif" font-size="12.5" fill="#2A2A2A" text-anchor="start" font-weight="normal">João   x</text><rect x="102" y="324" width="104" height="32" rx="16" fill="#EFE7D4" stroke="#E3DCCB" stroke-width="1"/><text x="118" y="345" font-family="Helvetica, Arial, sans-serif" font-size="12.5" fill="#2A2A2A" text-anchor="start" font-weight="normal">Leônidas   x</text><rect x="214" y="324" width="104" height="32" rx="16" fill="none" stroke="#C9972B" stroke-width="1.5"/><text x="266" y="345" font-family="Helvetica, Arial, sans-serif" font-size="12" fill="#C9972B" text-anchor="middle" font-weight="normal">+ adicionar</text><text x="18" y="392" font-family="Helvetica, Arial, sans-serif" font-size="11" fill="#8A8270" text-anchor="start" font-weight="bold">ENQUADRAMENTO</text><rect x="16" y="406" width="93" height="96" rx="12" fill="#FFF" stroke="#C9972B" stroke-width="2"/><rect x="47" y="420" width="30" height="52" rx="3" fill="#D8CDB3" stroke="none" stroke-width="1"/><text x="62" y="476" font-family="Helvetica, Arial, sans-serif" font-size="11.5" fill="#2A2A2A" text-anchor="middle" font-weight="bold">Tela cheia</text><text x="62" y="492" font-family="Helvetica, Arial, sans-serif" font-size="10" fill="#8A8270" text-anchor="middle" font-weight="normal">10:16</text><rect x="115" y="406" width="93" height="96" rx="12" fill="#FBF7EE" stroke="#E3DCCB" stroke-width="1.2"/><rect x="135" y="420" width="52" height="32" rx="3" fill="#D8CDB3" stroke="none" stroke-width="1"/><text x="161" y="476" font-family="Helvetica, Arial, sans-serif" font-size="11.5" fill="#2A2A2A" text-anchor="middle" font-weight="normal">Meia pág.</text><text x="161" y="492" font-family="Helvetica, Arial, sans-serif" font-size="10" fill="#8A8270" text-anchor="middle" font-weight="normal">16:10</text><rect x="214" y="406" width="93" height="96" rx="12" fill="#FBF7EE" stroke="#E3DCCB" stroke-width="1.2"/><rect x="239" y="420" width="42" height="42" rx="3" fill="#D8CDB3" stroke="none" stroke-width="1"/><text x="260" y="476" font-family="Helvetica, Arial, sans-serif" font-size="11.5" fill="#2A2A2A" text-anchor="middle" font-weight="normal">Bloco</text><text x="260" y="492" font-family="Helvetica, Arial, sans-serif" font-size="10" fill="#8A8270" text-anchor="middle" font-weight="normal">1:1</text><rect x="313" y="406" width="93" height="96" rx="12" fill="#FBF7EE" stroke="#E3DCCB" stroke-width="1.2"/><rect x="330" y="420" width="58" height="20" rx="3" fill="#D8CDB3" stroke="none" stroke-width="1"/><text x="359" y="476" font-family="Helvetica, Arial, sans-serif" font-size="11.5" fill="#2A2A2A" text-anchor="middle" font-weight="normal">Vinheta</text><text x="359" y="492" font-family="Helvetica, Arial, sans-serif" font-size="10" fill="#8A8270" text-anchor="middle" font-weight="normal">3:1</text><text x="18" y="540" font-family="Helvetica, Arial, sans-serif" font-size="11" fill="#8A8270" text-anchor="start" font-weight="bold">PESO DO ESTILO</text><rect x="16" y="552" width="260" height="6" rx="3" fill="#E3DCCB" stroke="none" stroke-width="1"/><rect x="16" y="552" width="180" height="6" rx="3" fill="#C9972B" stroke="none" stroke-width="1"/><circle cx="196" cy="555" r="10" fill="#C9972B"/><text x="300" y="540" font-family="Helvetica, Arial, sans-serif" font-size="11" fill="#8A8270" text-anchor="start" font-weight="bold">VARIAÇÕES</text><rect x="300" y="548" width="114" height="34" rx="17" fill="#FFFFFF" stroke="#E3DCCB" stroke-width="1.5"/><text x="316" y="570" font-family="Helvetica, Arial, sans-serif" font-size="16" fill="#8A8270" text-anchor="start" font-weight="normal">–</text><text x="357" y="570" font-family="Helvetica, Arial, sans-serif" font-size="15" fill="#2A2A2A" text-anchor="middle" font-weight="bold">2</text><text x="398" y="570" font-family="Helvetica, Arial, sans-serif" font-size="16" fill="#C9972B" text-anchor="middle" font-weight="normal">+</text><rect x="16" y="612" width="398" height="54" rx="14" fill="#C9972B" stroke="none" stroke-width="1"/><text x="215" y="645" font-family="Helvetica, Arial, sans-serif" font-size="17" fill="#FFFFFF" text-anchor="middle" font-weight="bold">Gerar  ·  2 variações</text><text x="215" y="690" font-family="Helvetica, Arial, sans-serif" font-size="11.5" fill="#8A8270" text-anchor="middle" font-weight="normal">≈ US$ 0,05 nesta geração</text></svg>